<mxfile host="Electron" modified="2023-12-15T14:17:13.409Z" agent="Mozilla/5.0 (Windows NT 10.0; Win64; x64) AppleWebKit/537.36 (KHTML, like Gecko) draw.io/22.1.2 Chrome/114.0.5735.289 Electron/25.9.4 Safari/537.36" etag="gpEPtNGlHxRG0bJKG9gJ" version="22.1.2" type="device">
  <diagram id="R2lEEEUBdFMjLlhIrx00" name="Page-1">
    <mxGraphModel dx="-5" dy="-903" grid="1" gridSize="10" guides="1" tooltips="1" connect="1" arrows="1" fold="1" page="0" pageScale="1" pageWidth="850" pageHeight="1100" math="0" shadow="0" extFonts="Permanent Marker^https://fonts.googleapis.com/css?family=Permanent+Marker">
      <root>
        <mxCell id="0" />
        <mxCell id="1" parent="0" />
        <mxCell id="bTUhzpZhpTAfi9-znQrQ-708" value="" style="fontSize=12;html=1;endArrow=none;rounded=0;dashed=1;dashPattern=1 4;endFill=0;edgeStyle=orthogonalEdgeStyle;" parent="1" source="bTUhzpZhpTAfi9-znQrQ-138" edge="1">
          <mxGeometry width="100" height="100" relative="1" as="geometry">
            <mxPoint x="2310" y="480" as="sourcePoint" />
            <mxPoint x="1361" y="880" as="targetPoint" />
            <Array as="points">
              <mxPoint x="1480" y="1360" />
              <mxPoint x="1480" y="880" />
            </Array>
          </mxGeometry>
        </mxCell>
        <mxCell id="bTUhzpZhpTAfi9-znQrQ-509" value="user_activities" style="shape=table;startSize=30;container=1;collapsible=1;childLayout=tableLayout;fixedRows=1;rowLines=0;fontStyle=1;align=center;resizeLast=1;fillColor=#f5f5f5;fontColor=#333333;strokeColor=#666666;" parent="1" vertex="1">
          <mxGeometry x="1360" y="1640" width="360" height="240" as="geometry" />
        </mxCell>
        <mxCell id="bTUhzpZhpTAfi9-znQrQ-510" value="" style="shape=partialRectangle;collapsible=0;dropTarget=0;pointerEvents=0;fillColor=none;points=[[0,0.5],[1,0.5]];portConstraint=eastwest;top=0;left=0;right=0;bottom=1;" parent="bTUhzpZhpTAfi9-znQrQ-509" vertex="1">
          <mxGeometry y="30" width="360" height="30" as="geometry" />
        </mxCell>
        <mxCell id="bTUhzpZhpTAfi9-znQrQ-511" value="PK" style="shape=partialRectangle;overflow=hidden;connectable=0;fillColor=none;top=0;left=0;bottom=0;right=0;fontStyle=1;" parent="bTUhzpZhpTAfi9-znQrQ-510" vertex="1">
          <mxGeometry width="40" height="30" as="geometry">
            <mxRectangle width="40" height="30" as="alternateBounds" />
          </mxGeometry>
        </mxCell>
        <mxCell id="bTUhzpZhpTAfi9-znQrQ-512" value="uuid uuid NOT NULL" style="shape=partialRectangle;overflow=hidden;connectable=0;fillColor=none;top=0;left=0;bottom=0;right=0;align=left;spacingLeft=6;fontStyle=5;" parent="bTUhzpZhpTAfi9-znQrQ-510" vertex="1">
          <mxGeometry x="40" width="320" height="30" as="geometry">
            <mxRectangle width="320" height="30" as="alternateBounds" />
          </mxGeometry>
        </mxCell>
        <mxCell id="bTUhzpZhpTAfi9-znQrQ-513" value="" style="shape=partialRectangle;collapsible=0;dropTarget=0;pointerEvents=0;fillColor=none;points=[[0,0.5],[1,0.5]];portConstraint=eastwest;top=0;left=0;right=0;bottom=0;" parent="bTUhzpZhpTAfi9-znQrQ-509" vertex="1">
          <mxGeometry y="60" width="360" height="30" as="geometry" />
        </mxCell>
        <mxCell id="bTUhzpZhpTAfi9-znQrQ-514" value="" style="shape=partialRectangle;overflow=hidden;connectable=0;fillColor=none;top=0;left=0;bottom=0;right=0;" parent="bTUhzpZhpTAfi9-znQrQ-513" vertex="1">
          <mxGeometry width="40" height="30" as="geometry">
            <mxRectangle width="40" height="30" as="alternateBounds" />
          </mxGeometry>
        </mxCell>
        <mxCell id="bTUhzpZhpTAfi9-znQrQ-515" value="timestamp timestamp without time zone NOT NULL" style="shape=partialRectangle;overflow=hidden;connectable=0;fillColor=none;top=0;left=0;bottom=0;right=0;align=left;spacingLeft=6;" parent="bTUhzpZhpTAfi9-znQrQ-513" vertex="1">
          <mxGeometry x="40" width="320" height="30" as="geometry">
            <mxRectangle width="320" height="30" as="alternateBounds" />
          </mxGeometry>
        </mxCell>
        <mxCell id="bTUhzpZhpTAfi9-znQrQ-516" style="shape=partialRectangle;collapsible=0;dropTarget=0;pointerEvents=0;fillColor=none;points=[[0,0.5],[1,0.5]];portConstraint=eastwest;top=0;left=0;right=0;bottom=0;" parent="bTUhzpZhpTAfi9-znQrQ-509" vertex="1">
          <mxGeometry y="90" width="360" height="30" as="geometry" />
        </mxCell>
        <mxCell id="bTUhzpZhpTAfi9-znQrQ-517" style="shape=partialRectangle;overflow=hidden;connectable=0;fillColor=none;top=0;left=0;bottom=0;right=0;" parent="bTUhzpZhpTAfi9-znQrQ-516" vertex="1">
          <mxGeometry width="40" height="30" as="geometry">
            <mxRectangle width="40" height="30" as="alternateBounds" />
          </mxGeometry>
        </mxCell>
        <mxCell id="bTUhzpZhpTAfi9-znQrQ-518" value="user_identifier varchar" style="shape=partialRectangle;overflow=hidden;connectable=0;fillColor=none;top=0;left=0;bottom=0;right=0;align=left;spacingLeft=6;" parent="bTUhzpZhpTAfi9-znQrQ-516" vertex="1">
          <mxGeometry x="40" width="320" height="30" as="geometry">
            <mxRectangle width="320" height="30" as="alternateBounds" />
          </mxGeometry>
        </mxCell>
        <mxCell id="bTUhzpZhpTAfi9-znQrQ-519" style="shape=partialRectangle;collapsible=0;dropTarget=0;pointerEvents=0;fillColor=none;points=[[0,0.5],[1,0.5]];portConstraint=eastwest;top=0;left=0;right=0;bottom=0;" parent="bTUhzpZhpTAfi9-znQrQ-509" vertex="1">
          <mxGeometry y="120" width="360" height="30" as="geometry" />
        </mxCell>
        <mxCell id="bTUhzpZhpTAfi9-znQrQ-520" style="shape=partialRectangle;overflow=hidden;connectable=0;fillColor=none;top=0;left=0;bottom=0;right=0;" parent="bTUhzpZhpTAfi9-znQrQ-519" vertex="1">
          <mxGeometry width="40" height="30" as="geometry">
            <mxRectangle width="40" height="30" as="alternateBounds" />
          </mxGeometry>
        </mxCell>
        <mxCell id="bTUhzpZhpTAfi9-znQrQ-521" value="action varchar NOT NULL" style="shape=partialRectangle;overflow=hidden;connectable=0;fillColor=none;top=0;left=0;bottom=0;right=0;align=left;spacingLeft=6;" parent="bTUhzpZhpTAfi9-znQrQ-519" vertex="1">
          <mxGeometry x="40" width="320" height="30" as="geometry">
            <mxRectangle width="320" height="30" as="alternateBounds" />
          </mxGeometry>
        </mxCell>
        <mxCell id="bTUhzpZhpTAfi9-znQrQ-525" style="shape=partialRectangle;collapsible=0;dropTarget=0;pointerEvents=0;fillColor=none;points=[[0,0.5],[1,0.5]];portConstraint=eastwest;top=0;left=0;right=0;bottom=0;" parent="bTUhzpZhpTAfi9-znQrQ-509" vertex="1">
          <mxGeometry y="150" width="360" height="30" as="geometry" />
        </mxCell>
        <mxCell id="bTUhzpZhpTAfi9-znQrQ-526" style="shape=partialRectangle;overflow=hidden;connectable=0;fillColor=none;top=0;left=0;bottom=0;right=0;" parent="bTUhzpZhpTAfi9-znQrQ-525" vertex="1">
          <mxGeometry width="40" height="30" as="geometry">
            <mxRectangle width="40" height="30" as="alternateBounds" />
          </mxGeometry>
        </mxCell>
        <mxCell id="bTUhzpZhpTAfi9-znQrQ-527" value="snapshot_before json" style="shape=partialRectangle;overflow=hidden;connectable=0;fillColor=none;top=0;left=0;bottom=0;right=0;align=left;spacingLeft=6;" parent="bTUhzpZhpTAfi9-znQrQ-525" vertex="1">
          <mxGeometry x="40" width="320" height="30" as="geometry">
            <mxRectangle width="320" height="30" as="alternateBounds" />
          </mxGeometry>
        </mxCell>
        <mxCell id="bTUhzpZhpTAfi9-znQrQ-528" style="shape=partialRectangle;collapsible=0;dropTarget=0;pointerEvents=0;fillColor=none;points=[[0,0.5],[1,0.5]];portConstraint=eastwest;top=0;left=0;right=0;bottom=0;" parent="bTUhzpZhpTAfi9-znQrQ-509" vertex="1">
          <mxGeometry y="180" width="360" height="30" as="geometry" />
        </mxCell>
        <mxCell id="bTUhzpZhpTAfi9-znQrQ-529" style="shape=partialRectangle;overflow=hidden;connectable=0;fillColor=none;top=0;left=0;bottom=0;right=0;" parent="bTUhzpZhpTAfi9-znQrQ-528" vertex="1">
          <mxGeometry width="40" height="30" as="geometry">
            <mxRectangle width="40" height="30" as="alternateBounds" />
          </mxGeometry>
        </mxCell>
        <mxCell id="bTUhzpZhpTAfi9-znQrQ-530" value="snapshot_after json" style="shape=partialRectangle;overflow=hidden;connectable=0;fillColor=none;top=0;left=0;bottom=0;right=0;align=left;spacingLeft=6;" parent="bTUhzpZhpTAfi9-znQrQ-528" vertex="1">
          <mxGeometry x="40" width="320" height="30" as="geometry">
            <mxRectangle width="320" height="30" as="alternateBounds" />
          </mxGeometry>
        </mxCell>
        <mxCell id="bTUhzpZhpTAfi9-znQrQ-531" style="shape=partialRectangle;collapsible=0;dropTarget=0;pointerEvents=0;fillColor=none;points=[[0,0.5],[1,0.5]];portConstraint=eastwest;top=0;left=0;right=0;bottom=0;" parent="bTUhzpZhpTAfi9-znQrQ-509" vertex="1">
          <mxGeometry y="210" width="360" height="30" as="geometry" />
        </mxCell>
        <mxCell id="bTUhzpZhpTAfi9-znQrQ-532" style="shape=partialRectangle;overflow=hidden;connectable=0;fillColor=none;top=0;left=0;bottom=0;right=0;" parent="bTUhzpZhpTAfi9-znQrQ-531" vertex="1">
          <mxGeometry width="40" height="30" as="geometry">
            <mxRectangle width="40" height="30" as="alternateBounds" />
          </mxGeometry>
        </mxCell>
        <mxCell id="bTUhzpZhpTAfi9-znQrQ-533" value="meta json NOT NULL" style="shape=partialRectangle;overflow=hidden;connectable=0;fillColor=none;top=0;left=0;bottom=0;right=0;align=left;spacingLeft=6;" parent="bTUhzpZhpTAfi9-znQrQ-531" vertex="1">
          <mxGeometry x="40" width="320" height="30" as="geometry">
            <mxRectangle width="320" height="30" as="alternateBounds" />
          </mxGeometry>
        </mxCell>
        <mxCell id="XGAFAMkMBTGPmGfgRaDn-1" value="user_activity_entities" style="shape=table;startSize=30;container=1;collapsible=1;childLayout=tableLayout;fixedRows=1;rowLines=0;fontStyle=1;align=center;resizeLast=1;fillColor=#f5f5f5;fontColor=#333333;strokeColor=default;" vertex="1" parent="1">
          <mxGeometry x="1840" y="1640" width="360" height="120" as="geometry" />
        </mxCell>
        <mxCell id="XGAFAMkMBTGPmGfgRaDn-8" style="shape=partialRectangle;collapsible=0;dropTarget=0;pointerEvents=0;fillColor=none;points=[[0,0.5],[1,0.5]];portConstraint=eastwest;top=0;left=0;right=0;bottom=0;" vertex="1" parent="XGAFAMkMBTGPmGfgRaDn-1">
          <mxGeometry y="30" width="360" height="30" as="geometry" />
        </mxCell>
        <mxCell id="XGAFAMkMBTGPmGfgRaDn-9" value="PK" style="shape=partialRectangle;overflow=hidden;connectable=0;fillColor=none;top=0;left=0;bottom=0;right=0;fontStyle=1" vertex="1" parent="XGAFAMkMBTGPmGfgRaDn-8">
          <mxGeometry width="40" height="30" as="geometry">
            <mxRectangle width="40" height="30" as="alternateBounds" />
          </mxGeometry>
        </mxCell>
        <mxCell id="XGAFAMkMBTGPmGfgRaDn-10" value="user_activity_uuid uuid NOT NULL" style="shape=partialRectangle;overflow=hidden;connectable=0;fillColor=none;top=0;left=0;bottom=0;right=0;align=left;spacingLeft=6;fontStyle=5" vertex="1" parent="XGAFAMkMBTGPmGfgRaDn-8">
          <mxGeometry x="40" width="320" height="30" as="geometry">
            <mxRectangle width="320" height="30" as="alternateBounds" />
          </mxGeometry>
        </mxCell>
        <mxCell id="XGAFAMkMBTGPmGfgRaDn-5" value="" style="shape=partialRectangle;collapsible=0;dropTarget=0;pointerEvents=0;fillColor=none;points=[[0,0.5],[1,0.5]];portConstraint=eastwest;top=0;left=0;right=0;bottom=0;" vertex="1" parent="XGAFAMkMBTGPmGfgRaDn-1">
          <mxGeometry y="60" width="360" height="30" as="geometry" />
        </mxCell>
        <mxCell id="XGAFAMkMBTGPmGfgRaDn-6" value="" style="shape=partialRectangle;overflow=hidden;connectable=0;fillColor=none;top=0;left=0;bottom=0;right=0;" vertex="1" parent="XGAFAMkMBTGPmGfgRaDn-5">
          <mxGeometry width="40" height="30" as="geometry">
            <mxRectangle width="40" height="30" as="alternateBounds" />
          </mxGeometry>
        </mxCell>
        <mxCell id="XGAFAMkMBTGPmGfgRaDn-7" value="entity_id varchar NOT NULL" style="shape=partialRectangle;overflow=hidden;connectable=0;fillColor=none;top=0;left=0;bottom=0;right=0;align=left;spacingLeft=6;fontStyle=5" vertex="1" parent="XGAFAMkMBTGPmGfgRaDn-5">
          <mxGeometry x="40" width="320" height="30" as="geometry">
            <mxRectangle width="320" height="30" as="alternateBounds" />
          </mxGeometry>
        </mxCell>
        <mxCell id="XGAFAMkMBTGPmGfgRaDn-2" value="" style="shape=partialRectangle;collapsible=0;dropTarget=0;pointerEvents=0;fillColor=none;points=[[0,0.5],[1,0.5]];portConstraint=eastwest;top=0;left=0;right=0;bottom=1;strokeColor=default;" vertex="1" parent="XGAFAMkMBTGPmGfgRaDn-1">
          <mxGeometry y="90" width="360" height="30" as="geometry" />
        </mxCell>
        <mxCell id="XGAFAMkMBTGPmGfgRaDn-3" value="" style="shape=partialRectangle;overflow=hidden;connectable=0;fillColor=none;top=0;left=0;bottom=0;right=0;fontStyle=1;" vertex="1" parent="XGAFAMkMBTGPmGfgRaDn-2">
          <mxGeometry width="40" height="30" as="geometry">
            <mxRectangle width="40" height="30" as="alternateBounds" />
          </mxGeometry>
        </mxCell>
        <mxCell id="XGAFAMkMBTGPmGfgRaDn-4" value="enity_type varchar NOT NULL" style="shape=partialRectangle;overflow=hidden;connectable=0;fillColor=none;top=0;left=0;bottom=0;right=0;align=left;spacingLeft=6;fontStyle=5;strokeColor=default;" vertex="1" parent="XGAFAMkMBTGPmGfgRaDn-2">
          <mxGeometry x="40" width="320" height="30" as="geometry">
            <mxRectangle width="320" height="30" as="alternateBounds" />
          </mxGeometry>
        </mxCell>
        <mxCell id="XGAFAMkMBTGPmGfgRaDn-32" style="edgeStyle=orthogonalEdgeStyle;rounded=0;orthogonalLoop=1;jettySize=auto;html=1;entryX=0;entryY=0.5;entryDx=0;entryDy=0;endArrow=ERmany;endFill=0;startArrow=ERone;startFill=0;" edge="1" parent="1" source="bTUhzpZhpTAfi9-znQrQ-510" target="XGAFAMkMBTGPmGfgRaDn-8">
          <mxGeometry relative="1" as="geometry" />
        </mxCell>
      </root>
    </mxGraphModel>
  </diagram>
</mxfile>
